<?xml version="1.0" encoding="UTF-8"?>
<svg xmlns="http://www.w3.org/2000/svg" xmlns:xlink="http://www.w3.org/1999/xlink" width="0" height="0">
<defs>
<symbol viewBox="0 0 24 24" id="x"><path fill="none" stroke="currentColor" stroke-linecap="round" stroke-linejoin="round" stroke-width="2" d="M18 6L6 18M6 6l12 12"></path></symbol>
<symbol viewBox="0 0 24 24" id="users"><g fill="none" stroke="currentColor" stroke-linecap="round" stroke-linejoin="round" stroke-width="2"><path d="M16 21v-2a4 4 0 0 0-4-4H6a4 4 0 0 0-4 4v2M16 3.128a4 4 0 0 1 0 7.744M22 21v-2a4 4 0 0 0-3-3.87"></path><circle cx="9" cy="7" r="4"></circle></g></symbol>
<symbol viewBox="0 0 24 24" id="user-check"><g fill="none" stroke="currentColor" stroke-linecap="round" stroke-linejoin="round" stroke-width="2"><path d="m16 11l2 2l4-4m-6 12v-2a4 4 0 0 0-4-4H6a4 4 0 0 0-4 4v2"></path><circle cx="9" cy="7" r="4"></circle></g></symbol>
<symbol viewBox="0 0 24 24" id="trending-up"><g fill="none" stroke="currentColor" stroke-linecap="round" stroke-linejoin="round" stroke-width="2"><path d="M16 7h6v6"></path><path d="m22 7l-8.5 8.5l-5-5L2 17"></path></g></symbol>
<symbol viewBox="0 0 24 24" id="target"><g fill="none" stroke="currentColor" stroke-linecap="round" stroke-linejoin="round" stroke-width="2"><circle cx="12" cy="12" r="10"></circle><circle cx="12" cy="12" r="6"></circle><circle cx="12" cy="12" r="2"></circle></g></symbol>
<symbol viewBox="0 0 24 24" id="sun"><g fill="none" stroke="currentColor" stroke-linecap="round" stroke-linejoin="round" stroke-width="2"><circle cx="12" cy="12" r="4"></circle><path d="M12 2v2m0 16v2M4.93 4.93l1.41 1.41m11.32 11.32l1.41 1.41M2 12h2m16 0h2M6.34 17.66l-1.41 1.41M19.07 4.93l-1.41 1.41"></path></g></symbol>
<symbol viewBox="0 0 24 24" id="shield-check"><g fill="none" stroke="currentColor" stroke-linecap="round" stroke-linejoin="round" stroke-width="2"><path d="M20 13c0 5-3.5 7.5-7.66 8.95a1 1 0 0 1-.67-.01C7.5 20.5 4 18 4 13V6a1 1 0 0 1 1-1c2 0 4.5-1.2 6.24-2.72a1.17 1.17 0 0 1 1.52 0C14.51 3.81 17 5 19 5a1 1 0 0 1 1 1z"></path><path d="m9 12l2 2l4-4"></path></g></symbol>
<symbol viewBox="0 0 24 24" id="presentation"><path fill="none" stroke="currentColor" stroke-linecap="round" stroke-linejoin="round" stroke-width="2" d="M2 3h20m-1 0v11a2 2 0 0 1-2 2H5a2 2 0 0 1-2-2V3m4 18l5-5l5 5"></path></symbol>
<symbol viewBox="0 0 24 24" id="network"><g fill="none" stroke="currentColor" stroke-linecap="round" stroke-linejoin="round" stroke-width="2"><rect width="6" height="6" x="16" y="16" rx="1"></rect><rect width="6" height="6" x="2" y="16" rx="1"></rect><rect width="6" height="6" x="9" y="2" rx="1"></rect><path d="M5 16v-3a1 1 0 0 1 1-1h12a1 1 0 0 1 1 1v3m-7-4V8"></path></g></symbol>
<symbol viewBox="0 0 24 24" id="moon"><path fill="none" stroke="currentColor" stroke-linecap="round" stroke-linejoin="round" stroke-width="2" d="M12 3a6 6 0 0 0 9 9a9 9 0 1 1-9-9"></path></symbol>
<symbol viewBox="0 0 24 24" id="message-circle"><path fill="none" stroke="currentColor" stroke-linecap="round" stroke-linejoin="round" stroke-width="2" d="M7.9 20A9 9 0 1 0 4 16.1L2 22Z"></path></symbol>
<symbol viewBox="0 0 24 24" id="menu"><path fill="none" stroke="currentColor" stroke-linecap="round" stroke-linejoin="round" stroke-width="2" d="M4 12h16M4 18h16M4 6h16"></path></symbol>
<symbol viewBox="0 0 24 24" id="megaphone"><path fill="none" stroke="currentColor" stroke-linecap="round" stroke-linejoin="round" stroke-width="2" d="m3 11l18-5v12L3 14zm8.6 5.8a3 3 0 1 1-5.8-1.6"></path></symbol>
<symbol viewBox="0 0 24 24" id="loader-circle"><path fill="none" stroke="currentColor" stroke-linecap="round" stroke-linejoin="round" stroke-width="2" d="M21 12a9 9 0 1 1-6.219-8.56"></path></symbol>
<symbol viewBox="0 0 24 24" id="lightbulb"><path fill="none" stroke="currentColor" stroke-linecap="round" stroke-linejoin="round" stroke-width="2" d="M15 14c.2-1 .7-1.7 1.5-2.5c1-.9 1.5-2.2 1.5-3.5A6 6 0 0 0 6 8c0 1 .2 2.2 1.5 3.5c.7.7 1.3 1.5 1.5 2.5m0 4h6m-5 4h4"></path></symbol>
<symbol viewBox="0 0 24 24" id="laptop"><path fill="none" stroke="currentColor" stroke-linecap="round" stroke-linejoin="round" stroke-width="2" d="M18 5a2 2 0 0 1 2 2v8.526a2 2 0 0 0 .212.897l1.068 2.127a1 1 0 0 1-.9 1.45H3.62a1 1 0 0 1-.9-1.45l1.068-2.127A2 2 0 0 0 4 15.526V7a2 2 0 0 1 2-2zm2.054 10.987H3.946"></path></symbol>
<symbol viewBox="0 0 24 24" id="heart"><path fill="none" stroke="currentColor" stroke-linecap="round" stroke-linejoin="round" stroke-width="2" d="M19 14c1.49-1.46 3-3.21 3-5.5A5.5 5.5 0 0 0 16.5 3c-1.76 0-3 .5-4.5 2c-1.5-1.5-2.74-2-4.5-2A5.5 5.5 0 0 0 2 8.5c0 2.3 1.5 4.05 3 5.5l7 7Z"></path></symbol>
<symbol viewBox="0 0 24 24" id="handshake"><g fill="none" stroke="currentColor" stroke-linecap="round" stroke-linejoin="round" stroke-width="2"><path d="m11 17l2 2a1 1 0 1 0 3-3"></path><path d="m14 14l2.5 2.5a1 1 0 1 0 3-3l-3.88-3.88a3 3 0 0 0-4.24 0l-.88.88a1 1 0 1 1-3-3l2.81-2.81a5.79 5.79 0 0 1 7.06-.87l.47.28a2 2 0 0 0 1.42.25L21 4"></path><path d="m21 3l1 11h-2M3 3L2 14l6.5 6.5a1 1 0 1 0 3-3M3 4h8"></path></g></symbol>
<symbol viewBox="0 0 24 24" id="graduation-cap"><g fill="none" stroke="currentColor" stroke-linecap="round" stroke-linejoin="round" stroke-width="2"><path d="M21.42 10.922a1 1 0 0 0-.019-1.838L12.83 5.18a2 2 0 0 0-1.66 0L2.6 9.08a1 1 0 0 0 0 1.832l8.57 3.908a2 2 0 0 0 1.66 0zM22 10v6"></path><path d="M6 12.5V16a6 3 0 0 0 12 0v-3.5"></path></g></symbol>
<symbol viewBox="0 0 24 24" id="globe"><g fill="none" stroke="currentColor" stroke-linecap="round" stroke-linejoin="round" stroke-width="2"><circle cx="12" cy="12" r="10"></circle><path d="M12 2a14.5 14.5 0 0 0 0 20a14.5 14.5 0 0 0 0-20M2 12h20"></path></g></symbol>
<symbol viewBox="0 0 24 24" id="flag"><path fill="none" stroke="currentColor" stroke-linecap="round" stroke-linejoin="round" stroke-width="2" d="M4 15s1-1 4-1s5 2 8 2s4-1 4-1V3s-1 1-4 1s-5-2-8-2s-4 1-4 1zm0 7v-7"></path></symbol>
<symbol viewBox="0 0 24 24" id="factory"><path fill="none" stroke="currentColor" stroke-linecap="round" stroke-linejoin="round" stroke-width="2" d="M12 16h.01M16 16h.01M3 19a2 2 0 0 0 2 2h14a2 2 0 0 0 2-2V8.5a.5.5 0 0 0-.769-.422l-4.462 2.844A.5.5 0 0 1 15 10.5v-2a.5.5 0 0 0-.769-.422L9.77 10.922A.5.5 0 0 1 9 10.5V5a2 2 0 0 0-2-2H5a2 2 0 0 0-2 2zm5-3h.01"></path></symbol>
<symbol viewBox="0 0 24 24" id="compass"><g fill="none" stroke="currentColor" stroke-linecap="round" stroke-linejoin="round" stroke-width="2"><path d="m16.24 7.76l-1.804 5.411a2 2 0 0 1-1.265 1.265L7.76 16.24l1.804-5.411a2 2 0 0 1 1.265-1.265z"></path><circle cx="12" cy="12" r="10"></circle></g></symbol>
<symbol viewBox="0 0 24 24" id="circle"><circle cx="12" cy="12" r="10" fill="none" stroke="currentColor" stroke-linecap="round" stroke-linejoin="round" stroke-width="2"></circle></symbol>
<symbol viewBox="0 0 24 24" id="circle-x"><g fill="none" stroke="currentColor" stroke-linecap="round" stroke-linejoin="round" stroke-width="2"><circle cx="12" cy="12" r="10"></circle><path d="m15 9l-6 6m0-6l6 6"></path></g></symbol>
<symbol viewBox="0 0 24 24" id="chevrons-down"><path fill="none" stroke="currentColor" stroke-linecap="round" stroke-linejoin="round" stroke-width="2" d="m7 6l5 5l5-5M7 13l5 5l5-5"></path></symbol>
<symbol viewBox="0 0 24 24" id="chevron-right"><path fill="none" stroke="currentColor" stroke-linecap="round" stroke-linejoin="round" stroke-width="2" d="m9 18l6-6l-6-6"></path></symbol>
<symbol viewBox="0 0 24 24" id="check"><path fill="none" stroke="currentColor" stroke-linecap="round" stroke-linejoin="round" stroke-width="2" d="M20 6L9 17l-5-5"></path></symbol>
<symbol viewBox="0 0 24 24" id="calendar-check"><g fill="none" stroke="currentColor" stroke-linecap="round" stroke-linejoin="round" stroke-width="2"><path d="M8 2v4m8-4v4"></path><rect width="18" height="18" x="3" y="4" rx="2"></rect><path d="M3 10h18M9 16l2 2l4-4"></path></g></symbol>
<symbol viewBox="0 0 24 24" id="briefcase"><g fill="none" stroke="currentColor" stroke-linecap="round" stroke-linejoin="round" stroke-width="2"><path d="M16 20V4a2 2 0 0 0-2-2h-4a2 2 0 0 0-2 2v16"></path><rect width="20" height="14" x="2" y="6" rx="2"></rect></g></symbol>
<symbol viewBox="0 0 24 24" id="brain"><g fill="none" stroke="currentColor" stroke-linecap="round" stroke-linejoin="round" stroke-width="2"><path d="M12 5a3 3 0 1 0-5.997.125a4 4 0 0 0-2.526 5.77a4 4 0 0 0 .556 6.588A4 4 0 1 0 12 18Z"></path><path d="M12 5a3 3 0 1 1 5.997.125a4 4 0 0 1 2.526 5.77a4 4 0 0 1-.556 6.588A4 4 0 1 1 12 18Z"></path><path d="M15 13a4.5 4.5 0 0 1-3-4a4.5 4.5 0 0 1-3 4m8.599-6.5a3 3 0 0 0 .399-1.375m-11.995 0A3 3 0 0 0 6.401 6.5m-2.924 4.396a4 4 0 0 1 .585-.396m15.876 0a4 4 0 0 1 .585.396M6 18a4 4 0 0 1-1.967-.516m15.934 0A4 4 0 0 1 18 18"></path></g></symbol>
<symbol viewBox="0 0 24 24" id="book-open"><path fill="none" stroke="currentColor" stroke-linecap="round" stroke-linejoin="round" stroke-width="2" d="M12 7v14m-9-3a1 1 0 0 1-1-1V4a1 1 0 0 1 1-1h5a4 4 0 0 1 4 4a4 4 0 0 1 4-4h5a1 1 0 0 1 1 1v13a1 1 0 0 1-1 1h-6a3 3 0 0 0-3 3a3 3 0 0 0-3-3z"></path></symbol>
<symbol viewBox="0 0 24 24" id="award"><g fill="none" stroke="currentColor" stroke-linecap="round" stroke-linejoin="round" stroke-width="2"><path d="m15.477 12.89l1.515 8.526a.5.5 0 0 1-.81.47l-3.58-2.687a1 1 0 0 0-1.197 0l-3.586 2.686a.5.5 0 0 1-.81-.469l1.514-8.526"></path><circle cx="12" cy="8" r="6"></circle></g></symbol>
<symbol viewBox="0 0 24 24" id="arrow-right"><path fill="none" stroke="currentColor" stroke-linecap="round" stroke-linejoin="round" stroke-width="2" d="M5 12h14m-7-7l7 7l-7 7"></path></symbol>
<symbol viewBox="0 0 24 24" id="arrow-left"><path fill="none" stroke="currentColor" stroke-linecap="round" stroke-linejoin="round" stroke-width="2" d="m12 19l-7-7l7-7m7 7H5"></path></symbol>
</defs>
</svg>